<svg xmlns="http://www.w3.org/2000/svg" viewBox="0 0 447.7 200">
    <path fill="#222"
          d="M446.8 168.1l-13.7 31.4h-5.6l4.6-10.6-9.2-20.8h5.6l6.4 14.4 6.2-14.4h5.7zM394 184c-1.7 2.2-3.9 3.2-6.6 3.2-1.5 0-2.8-.3-4-1-1.1-.6-2-1.5-2.7-2.7-.7-1.2-1-2.4-1-3.7 0-2.1.7-3.7 2.2-5.1 1.5-1.4 3.3-2.1 5.5-2.1 2.8 0 5 1.1 6.6 3.2l.7.9 4.2-2.6-.6-1.1c-.7-1.2-1.6-2.2-2.7-3-1-.8-2.2-1.4-3.7-1.9-3.7-1.2-7.9-.8-11.1.9-2 1.1-3.6 2.6-4.7 4.6-1.1 1.9-1.7 4.1-1.7 6.3 0 3.4 1.2 6.3 3.7 8.7 2.4 2.3 5.5 3.5 9.2 3.5 2.4 0 4.5-.5 6.4-1.4 1.9-.9 3.4-2.2 4.6-3.9l.7-1-4.2-2.8-.8 1zm-47.3-15c-2.8-1.8-6.8-1.8-9.8-.2-.6.3-1.2.7-1.8 1.2v-1.9h-5.2v23.7h5.2v-9c0-3.3.2-4.8.4-5.4.3-1.3 1.1-2.5 2.2-3.4 1.1-.9 2.3-1.3 3.6-1.3 1.2 0 2.1.3 2.7.8.7.5 1.1 1.4 1.4 2.5.1.5.3 1.6.3 4.6v11.3h5.2v-12.1c0-3.1-.3-5.3-1-6.8-.6-1.8-1.7-3.1-3.2-4zm-42.1 12.4h-18.9c.2 1.6.9 2.8 1.9 3.9 1.3 1.3 2.8 2 4.7 2 1 0 1.9-.2 2.7-.5.9-.3 1.6-.8 2.2-1.3.5-.4 1.2-1.2 2.1-2.7l.6-1 4.4 2.3-.6 1.1c-.8 1.6-1.8 2.9-2.9 3.9-1.1 1-2.4 1.8-3.7 2.3-1.4.5-2.9.8-4.6.8-3.8 0-6.9-1.3-9-3.8-2.1-2.5-3.2-5.3-3.2-8.5 0-3 .9-5.6 2.7-7.9 2.3-3 5.5-4.5 9.4-4.5 4 0 7.2 1.5 9.6 4.6 1.7 2.1 2.6 4.8 2.6 8v1.3zm-18.2-4.9h12.2c-.2-.6-.5-1-.8-1.4-.6-.7-1.3-1.3-2.3-1.8-1-.5-2-.7-3.1-.7-1.8 0-3.2.6-4.5 1.7-.6.6-1.1 1.3-1.5 2.2zm-33.5-8.4h5.3v18.1c0 3.1-.3 5.4-.9 6.9-.8 2.2-2.2 3.9-4.2 5.1-1.9 1.2-4.3 1.7-7 1.7-1.9 0-3.7-.3-5.3-.8-1.6-.6-2.9-1.4-4-2.3-1-1-2-2.4-2.8-4.2l-.8-1.8h5.6l.4.6c.7 1.2 1.6 2.1 2.6 2.6 1.1.6 2.5.8 4.1.8 1.6 0 3-.3 4.1-.9 1.1-.6 1.8-1.3 2.2-2.1.2-.4.5-1.2.6-2.6-.6.4-1.2.8-1.9 1.1-3.6 1.7-7.8 1.5-11.3-.5-1.9-1.1-3.4-2.6-4.4-4.4-1-1.8-1.6-3.8-1.6-6s.5-4.2 1.6-6.1c1.1-1.9 2.6-3.4 4.5-4.5 3.5-2 7.7-2.1 11-.6.7.4 1.4.8 2.1 1.4v-1.5zm-12 16.6c1.3 1.3 3 1.9 5.2 1.9s3.9-.6 5.1-1.9c1.3-1.3 1.9-2.9 1.9-5 0-1.4-.3-2.6-.9-3.7-.6-1.1-1.4-1.9-2.5-2.5-1.1-.6-2.3-.9-3.5-.9-1.3 0-2.5.3-3.7.9-1.1.6-2 1.5-2.6 2.6-.6 1.1-1 2.3-1 3.6 0 2.2.6 3.8 2 5zm-36.7-16.6h5.2v23.7h-5.2v-1.9c-.6.5-1.3.9-2 1.3-1.6.8-3.3 1.2-5.2 1.2-3.3 0-6.2-1.2-8.6-3.6-2.4-2.4-3.5-5.4-3.5-8.8 0-3.4 1.2-6.3 3.6-8.7 2.3-2.4 5.2-3.6 8.6-3.6 1.9 0 3.7.4 5.3 1.3.7.3 1.3.8 1.9 1.2v-2.1zm-3.3 18.2c1.1-.6 2-1.5 2.6-2.6.6-1.1.9-2.3.9-3.7 0-2.1-.7-3.8-2-5.3-1.4-1.4-3-2.1-5.1-2.1-1.3 0-2.5.3-3.6.9-1.1.6-1.9 1.5-2.6 2.7-.7 1.2-1 2.4-1 3.7 0 1.3.3 2.5 1 3.7.7 1.2 1.5 2 2.6 2.7 2.2 1.3 4.9 1.3 7.2 0zm-65.3-13.1c-.4.3-.5.7-.5 1.1 0 .4.2.8.5 1.2.2.3.9.9 2.9 1.9 2.2 1.2 3.7 2.3 4.5 3.4.9 1.2 1.3 2.5 1.3 4 0 2.1-.7 3.9-2.2 5.3-1.5 1.4-3.3 2.2-5.4 2.2-1.4 0-2.8-.3-4.1-.9-1.3-.6-2.4-1.5-3.2-2.5l-.6-.8 3.3-3.8.9 1.1c1.9 2.1 4.1 2.4 5.4 1.2.5-.5.7-.9.7-1.5 0-.5-.1-.9-.5-1.3-.2-.2-.9-.9-3-2s-3.5-2.2-4.3-3.3c-.8-1.2-1.3-2.5-1.3-4 0-1.9.7-3.6 2-4.9 1.4-1.3 3-1.9 5-1.9 2.3 0 4.5 1.1 6.7 3.2l.9.9-3.5 3.6-.9-.9c-1.7-1.9-3.4-2.4-4.6-1.3zm-30 8.3L99.7 168h-2.1l-5.9 13.4L86 168h-5.5l10.1 23.7h2.1l6-13.3 5.9 13.3h2.2l10.3-23.7h-5.6l-5.9 13.5zm-40.2-.1H46.5c.2 1.6.9 2.8 1.9 3.9 1.3 1.3 2.8 2 4.7 2 1 0 1.9-.2 2.7-.5.9-.3 1.7-.8 2.2-1.3.5-.4 1.2-1.2 2.1-2.7l.6-1 4.4 2.3-.6 1.1c-.8 1.6-1.8 2.9-2.9 3.9-1.1 1-2.4 1.8-3.7 2.3-1.4.5-2.9.8-4.6.8-3.8 0-6.9-1.3-9-3.8-2.1-2.5-3.2-5.3-3.2-8.5 0-3 .9-5.6 2.7-7.9 2.3-3 5.5-4.5 9.3-4.5 4 0 7.2 1.5 9.6 4.6 1.7 2.1 2.6 4.8 2.6 8l.1 1.3zm-18.2-4.9h12.2c-.2-.6-.5-1-.8-1.4-.6-.7-1.3-1.3-2.3-1.8-2.6-1.2-5.6-.8-7.6 1-.6.6-1.1 1.3-1.5 2.2zM18 169c-2.9-1.8-6.8-1.8-9.8-.2-.6.3-1.2.7-1.7 1.2v-1.9H1.2v23.7h5.2v-9c0-2.7.1-4.5.3-5.4.3-1.3 1.1-2.5 2.2-3.4 1.1-.9 2.3-1.3 3.6-1.3 1.2 0 2.1.3 2.7.8.7.5 1.1 1.3 1.4 2.5.1.5.3 1.6.3 4.5v11.3h5.2v-12.1c0-3.1-.3-5.3-1-6.8-.6-1.7-1.6-3-3.1-3.9z"/>
    <path fill-rule="evenodd" clip-rule="evenodd" fill="#87080E"
          d="M447.7 0v139h-11.1v-15c-4.7 5.7-10 10-15.8 12.9-5.9 2.9-12.3 4.3-19.2 4.3-12.4 0-22.9-4.5-31.7-13.4-8.7-9-13.1-19.9-13.1-32.7 0-12.6 4.4-23.3 13.3-32.2 8.8-8.9 19.5-13.4 31.9-13.4 7.2 0 13.6 1.5 19.5 4.6 5.8 3.1 10.9 7.6 15.3 13.7V0h10.9zm-45 60.2c-6.3 0-12 1.5-17.3 4.6-5.3 3.1-9.5 7.4-12.6 13-3.1 5.6-4.7 11.5-4.7 17.6 0 6.2 1.6 12.1 4.7 17.7 3.2 5.6 7.4 10 12.7 13.1 5.3 3.1 11 4.7 17.1 4.7 6.2 0 12-1.6 17.5-4.7s9.8-7.3 12.7-12.6c3-5.3 4.5-11.3 4.5-17.9 0-10.1-3.4-18.6-10-25.4-6.7-6.7-14.8-10.1-24.6-10.1zM260.2 139h11.2v-32c0-11.5.5-19.4 1.6-23.7 1.7-6.6 5.3-12.2 10.6-16.7 5.4-4.5 11.5-6.7 18.2-6.7 5.9 0 10.8 1.5 14.5 4.4 3.7 2.9 6.2 7.3 7.5 13 .8 3.4 1.3 10.1 1.3 20.1V139h11.2V94c0-11.9-1.2-20.6-3.6-26.2-2.4-5.6-6.1-10.1-11.2-13.4-5.1-3.3-10.9-5-17.4-5-6.4 0-12.4 1.5-17.8 4.5s-10.4 7.5-14.9 13.5V51.6h-11.2V139zm-33.3-29l9.5 5c-3.1 6.1-6.7 11-10.7 14.8-4.1 3.8-8.7 6.6-13.7 8.5-5.1 2-10.8 2.9-17.3 2.9-14.2 0-25.4-4.7-33.4-14s-12-19.9-12-31.7c0-11.1 3.4-21 10.2-29.6 8.6-11 20.1-16.5 34.6-16.5 14.9 0 26.8 5.7 35.7 17 6.3 8 9.5 17.9 9.6 29.8h-78.5c.2 10.2 3.5 18.5 9.7 25 6.3 6.5 14 9.8 23.2 9.8 4.4 0 8.8-.8 13-2.3 4.2-1.6 7.8-3.6 10.7-6.2 2.8-2.6 6-6.8 9.4-12.5zm0-23.5c-1.5-6-3.7-10.8-6.5-14.4-2.9-3.6-6.7-6.5-11.4-8.7-4.7-2.2-9.6-3.3-14.9-3.3-8.5 0-15.9 2.8-22.1 8.3-4.5 4-7.9 10-10.2 18.1h65.1zM99.7 139h11.5v-29.5c0-15.1.7-25.2 2.1-30.2 1.8-6.5 4.5-11.2 7.9-14.3 3.5-3.1 7.1-4.6 10.8-4.6 1.6 0 3.6.5 5.9 1.5l5.9-9.5c-3.6-2-6.9-3-10-3-4.1 0-8.1 1.3-11.9 3.8-3.8 2.5-7.4 6.2-10.8 11.3V51.6H99.7V139zM75.1 51H57.3c0-8-.2-43.3-.3-49.6L46.4 12.8c-.5 1.8-.1 80.6-.1 91.7 0 6.7-.9 15.6 1.5 21.4 6.7 14.9 19.9 12.9 32.7 12.7v-9.9c-7 .1-14.2 1.4-19.9-2.6-4.9-3.8-3.4-12.1-3.4-19.4l.1-45.7h17.9l-.1-10z"/>
    <path opacity=".7" fill="#60070C" d="M39.2 20.5v118.6h-7.1v-111l7.1-7.6zM22.5 139.1h6.1V31.9l-6.1 6.5v100.7zm-8.6 0h5V42.2l-5 5.3v91.6zm-7.5 0h3.9V51.3l-3.9 4.2v83.6zm-6.4 0h2.8V59.3l-2.8 3v76.8z"/>
</svg>